<svg data-v-423bf9ae="" xmlns="http://www.w3.org/2000/svg" viewBox="0 0 436 90" class="iconLeft"><!----><!----><!----><g data-v-423bf9ae="" id="1c6e9c97-1a4b-4465-a4ba-a396d4472d79" fill="white" transform="matrix(6.1412490322938345,0,0,6.1412490322938345,169.12418758114924,2.9631502319225547)"><path d="M3.31 1.96L3.31 1.96Q4.94 1.96 5.49 3.01L5.49 3.01Q5.87 3.80 5.87 4.56L5.87 4.56L5.86 4.56Q4.74 4.66 4.33 4.66L4.33 4.66Q4.33 4.12 4.00 3.75L4.00 3.75Q3.68 3.57 3.42 3.57L3.42 3.57L3.14 3.57Q2.45 3.57 2.30 4.11L2.30 4.11Q2.26 4.27 2.26 4.35L2.26 4.35L2.26 4.50Q2.26 5.26 3.07 5.61L3.07 5.61Q3.14 5.67 4.19 6.12L4.19 6.12Q4.75 6.38 5.23 6.76L5.23 6.76L5.23 6.77L3.51 6.77L3.51 6.97L5.78 6.97L5.78 7.24L6.06 7.24L6.06 10.21L5.50 10.21L5.50 11.73L1.16 11.73L1.16 10.21L0.13 10.21L0.13 9.18L0.71 9.18L0.71 8.83L0.13 8.83L0.13 8.59L2.12 8.59L2.12 10.21L4.16 10.21L4.16 7.77L2.63 7.77L2.63 6.97L0.74 6.97L0.74 6.77L1.65 6.77L1.65 6.76Q0.45 5.96 0.45 4.50L0.45 4.50L0.45 4.37Q0.45 3.14 1.20 2.51L1.20 2.51Q1.89 1.96 3.31 1.96ZM5.78 6.97L5.78 6.77L6.47 6.77L6.47 6.97L5.78 6.97ZM-0.53 9.18L-0.53 8.83L0.13 8.83L0.13 9.18L-0.53 9.18ZM3.86 8.83L3.86 8.83L4.06 8.83Q4.09 8.83 4.09 8.86L4.09 8.86L4.09 8.91L3.92 8.91L3.92 8.97L4.07 8.97L4.07 9.02Q4.07 9.05 4.05 9.05L4.05 9.05L3.92 9.05L3.92 9.12L4.09 9.12L4.09 9.17Q4.09 9.19 4.06 9.19L4.06 9.19L3.86 9.19Q3.82 9.19 3.82 9.17L3.82 9.17L3.82 8.86Q3.83 8.83 3.86 8.83ZM3.77 9.31L3.77 9.31L3.83 9.31Q3.85 9.31 3.95 9.43L3.95 9.43Q4.00 9.31 4.03 9.31L4.03 9.31L4.07 9.31Q4.11 9.31 4.11 9.34L4.11 9.34Q3.96 9.50 3.96 9.68L3.96 9.68L3.92 9.68Q3.88 9.68 3.87 9.49L3.87 9.49Q3.77 9.36 3.77 9.31ZM3.73 9.79L3.73 9.79L3.79 9.79Q3.83 9.79 3.87 10.00L3.87 10.00L3.90 10.00Q3.94 9.79 3.98 9.79L3.98 9.79L4.05 9.79Q4.07 9.80 4.07 9.82L4.07 9.82L4.07 10.12Q4.07 10.16 4.05 10.16L4.05 10.16L4.00 10.16L4.00 9.95L3.98 9.95L3.92 10.16L3.87 10.16Q3.83 10.16 3.79 9.95L3.79 9.95L3.77 9.95L3.77 10.16L3.73 10.16Q3.69 10.16 3.69 10.12L3.69 10.12L3.69 9.82Q3.70 9.79 3.73 9.79ZM5.60 10.62L5.60 10.29L5.76 10.29Q5.89 10.29 5.89 10.42L5.89 10.42Q5.86 10.42 5.86 10.45L5.86 10.45Q5.91 10.51 5.91 10.56L5.91 10.56Q5.87 10.66 5.73 10.66L5.73 10.66L5.63 10.66Q5.60 10.66 5.60 10.62L5.60 10.62ZM5.79 10.37L5.69 10.37L5.69 10.43L5.76 10.43Q5.79 10.43 5.79 10.40L5.79 10.40L5.79 10.37ZM5.78 10.49L5.69 10.49L5.69 10.58L5.78 10.58Q5.81 10.58 5.81 10.54L5.81 10.54L5.81 10.53Q5.81 10.49 5.78 10.49L5.78 10.49ZM5.60 11.10L5.60 10.77L5.67 10.77Q5.70 10.77 5.81 10.99L5.81 10.99L5.82 10.99L5.82 10.77L5.91 10.77L5.91 11.10Q5.91 11.14 5.87 11.14L5.87 11.14L5.84 11.14Q5.82 11.14 5.68 10.93L5.68 10.93L5.68 11.10Q5.68 11.14 5.65 11.14L5.65 11.14L5.63 11.14Q5.60 11.14 5.60 11.10L5.60 11.10ZM7.22 6.80L7.22 2.00L12.01 2.00L12.01 3.60Q12.01 3.63 11.98 3.63L11.98 3.63L9.13 3.63L9.13 5.74L11.68 5.74L11.68 5.76Q11.68 5.84 11.66 6.79L11.66 6.79Q11.63 6.79 11.63 6.80L11.63 6.80L11.75 6.80L11.75 7.29L9.54 7.29L9.54 9.29L8.95 9.29L8.95 9.49L9.54 9.49L9.54 10.10L12.04 10.10L12.04 10.32L11.85 10.32L11.85 11.52L8.85 11.52L8.85 11.73L7.43 11.73L7.43 8.24L7.22 8.24L7.22 7.01L5.66 7.01L5.66 6.80L7.22 6.80ZM8.03 6.80L7.23 6.80L7.23 7.01L8.03 7.01L8.03 6.80ZM12.78 7.49L12.78 1.96L16.13 1.96Q17.81 1.96 18.31 3.14L18.31 3.14Q18.52 3.75 18.52 4.53L18.52 4.53L18.52 4.94Q18.52 6.36 17.90 7.11L17.90 7.11L17.19 7.11L17.19 7.47L18.27 7.47L18.27 9.81L17.63 9.81L17.63 10.17L18.60 10.17L18.60 11.55L16.56 11.55L16.56 9.34L15.78 9.34L15.78 7.92L14.41 7.92L14.41 10.34L14.70 10.34L14.70 11.73L12.82 11.73Q12.78 11.73 12.78 11.70L12.78 11.70L12.78 7.77L13.62 7.77L13.62 7.49L12.78 7.49ZM15.51 3.55L14.70 3.55L14.70 6.31L15.17 6.31Q16.21 6.31 16.38 6.11L16.38 6.11Q16.55 6.00 16.65 5.67L16.65 5.67L17.37 5.67L17.37 5.32L16.71 5.32L16.71 5.35Q16.66 5.67 16.63 5.67L16.63 5.67L15.70 5.67L15.70 5.32L16.68 5.32Q16.71 5.32 16.71 5.29L16.71 5.29Q16.73 4.87 16.73 4.81L16.73 4.81Q16.73 3.90 16.41 3.69L16.41 3.69Q16.17 3.55 15.51 3.55L15.51 3.55ZM20.25 7.57L21.93 1.96L23.58 1.96Q23.61 2.10 25.18 7.29L25.18 7.29L25.48 7.29L25.48 10.51L24.80 10.51L24.80 10.76L25.48 10.76L25.48 11.45L23.66 11.45L23.66 9.47L21.44 9.47L21.44 10.32L20.53 10.32L20.53 11.73L18.88 11.73L18.88 11.63L19.01 11.63L19.01 10.32L19.69 10.32L19.69 7.57L20.25 7.57ZM22.74 4.71L22.70 4.71L22.70 4.72Q22.49 5.89 21.88 8.40L21.88 8.40L23.41 8.40L23.41 7.29L23.28 7.29Q22.74 4.92 22.74 4.71L22.74 4.71ZM18.40 7.57L18.40 7.28L19.69 7.28L19.69 7.57L18.40 7.57ZM23.66 11.73L23.66 11.57L25.85 11.57L25.85 11.73L23.66 11.73ZM25.57 6.41L25.57 1.98L30.47 1.98L30.47 3.60L27.51 3.60L27.51 5.91L30.06 5.91L30.09 5.93L30.07 5.97Q30.06 6.46 30.06 6.54L30.06 6.54L29.78 6.54L29.78 6.56Q29.78 6.73 29.74 7.31L29.74 7.31L30.01 7.31Q30.01 7.59 29.96 7.59L29.96 7.59L28.17 7.59L28.17 7.92L27.23 7.92L27.23 8.10L27.51 8.10L27.51 8.96L28.44 8.96L28.44 9.11L27.51 9.11L27.51 11.47L27.49 11.58L26.50 11.58L26.50 11.73L25.61 11.73Q25.57 11.73 25.57 11.70L25.57 11.70L25.57 11.45L25.59 11.29L26.07 11.29L26.07 11.04L25.57 11.04L25.57 10.10L25.81 10.10L25.81 6.66L26.20 6.66L26.20 6.41L25.57 6.41ZM27.49 8.96L26.61 8.96L26.61 9.11L27.49 9.11L27.49 8.96ZM30.96 1.96L30.96 1.96L32.88 1.96Q32.88 3.37 33.37 4.35L33.37 4.35Q33.90 5.64 34.10 6.39L34.10 6.39L34.10 6.41L34.11 6.41Q34.36 5.50 35.13 3.62L35.13 3.62Q35.33 2.72 35.33 1.96L35.33 1.96L37.13 1.96Q36.97 3.43 36.72 4.13L36.72 4.13L35.64 6.59L34.98 6.59L34.98 8.28L33.98 8.28L33.98 8.61L34.98 8.61L34.98 11.73L33.11 11.73Q33.08 11.73 33.08 11.70L33.08 11.70L33.08 10.17L32.78 10.17L32.78 7.46L33.34 7.46L33.34 7.21L32.73 7.21Q32.66 7.12 31.60 4.67L31.60 4.67Q31.15 3.68 31.15 3.49L31.15 3.49L31.96 3.49L31.96 3.14L31.09 3.14Q30.96 2.06 30.96 1.96ZM29.79 3.49L29.79 3.14L31.09 3.14L31.14 3.49L29.79 3.49ZM34.98 8.61L34.98 8.28L35.79 8.28L35.79 8.61L34.98 8.61ZM37.47 10.60L37.47 2.00L39.39 2.00L39.39 3.83Q39.39 4.74 39.35 5.80L39.35 5.80L39.35 5.82L39.38 5.82Q39.61 5.37 40.67 3.51L40.67 3.51Q41.21 2.57 41.21 2.09L41.21 2.09L41.21 2.00L43.17 2.00L43.17 2.04Q43.17 2.98 42.40 4.09L42.40 4.09L41.24 5.78L42.38 8.21L43.42 8.21L43.42 8.50L42.25 8.50L42.25 8.52Q42.53 9.13 42.62 9.24L42.62 9.24L42.83 9.24L42.83 10.12L43.12 10.12L43.12 11.72Q42.62 11.73 42.38 11.73L42.38 11.73L41.91 11.73Q41.66 11.73 41.22 11.72L41.22 11.72L41.22 10.65L40.80 10.65L40.80 9.24L40.55 9.24L40.29 8.50L42.24 8.50L42.24 8.21L40.46 8.21Q40.46 8.18 40.14 7.23L40.14 7.23L40.13 7.23Q39.96 7.54 39.47 8.21L39.47 8.21L40.29 8.21L40.29 8.50L39.39 8.50L39.39 8.98L39.27 8.98L39.27 11.20L39.39 11.20L39.39 11.70Q39.39 11.73 39.35 11.73L39.35 11.73L37.51 11.73Q37.47 11.73 37.47 11.70L37.47 11.70L37.47 10.93L38.34 10.93L38.34 10.60L37.47 10.60ZM39.46 8.21L38.26 8.21L38.26 8.50L39.38 8.50Q39.38 8.45 39.46 8.21L39.46 8.21Z"></path></g><!----><g data-v-423bf9ae="" id="3332aa13-c897-4d3b-9af8-64e91a8d7286" transform="matrix(1.5319671165132673,0,0,1.5319671165132673,0.06534133613757831,0)" stroke="none" fill="white"><path d="M95.217 0L55.41 29.765a10.806 10.806 0 013.251 7.739c0 5.982-4.847 10.832-10.827 10.836l-.009 3.396h.017a14.809 14.809 0 004.73-.782l1.418 5.306.824.226-1.307-4.776 2.561 5.12 1.307.357-1.554-4.494 2.98 4.886.954.261-1.699-3.778 3.57 4.291 1.441.395-7.325-9.309c.487-.31.956-.645 1.403-1.008l4.36 4.361.501-.06-2.429-3.509 3.206 3.418 3.038-.357-3.267-3.494 6.332 3.201 4.414-.587-13.657-5.563c.216-.286.419-.581.614-.883l11.944 2.455.828-.569-6.569-1.784 7.497 1.148 2.563-1.762-8.614-1.41 10.245.289 3.305-2.272H62.04c.14-.485.256-.979.346-1.482l17.45-1.004.86-1.06-6.431.21 6.993-.903 2.08-2.563-10.808 1.326 11.825-2.582 2.938-3.622-24.683 6.815a19.234 19.234 0 00-.113-1.506l21.04-7.449 1.015-1.541-7.684 2.426 8.33-3.407 1.862-2.826-9.383 2.475 10.739-4.534 3.157-4.792-29.874 16.24v.002a13.003 13.003 0 00-.235-.592l26.352-16.576 2.395-4.564-6.854 4.361 7.505-5.602 1.451-2.766-13.304 8.761L93.315 3.624 95.217 0zM0 0l39.807 29.765a10.806 10.806 0 00-3.251 7.739c0 5.982 4.847 10.832 10.827 10.836l.009 3.396h-.017a14.809 14.809 0 01-4.73-.782l-1.418 5.306-.824.226 1.307-4.776-2.561 5.12-1.307.357 1.555-4.494-2.981 4.886-.954.261 1.699-3.778-3.571 4.291-1.44.395 7.326-9.309c-.488-.31-.957-.645-1.404-1.008l-4.36 4.361-.501-.06 2.429-3.509-3.206 3.418-3.038-.357 3.266-3.494-6.332 3.201-4.414-.587 13.657-5.563a14.623 14.623 0 01-.614-.883l-11.944 2.455-.828-.569 6.572-1.784-7.497 1.148-2.563-1.762 8.614-1.41-10.245.289-3.305-2.272h19.415a14.91 14.91 0 01-.346-1.482L15.38 38.566l-.859-1.06 6.43.21-6.993-.903-2.079-2.563 10.807 1.326-11.826-2.581-2.938-3.622 24.685 6.815c.019-.513.056-1.015.113-1.506l-21.04-7.449-1.015-1.541 7.684 2.426-8.33-3.407-1.862-2.826 9.383 2.475L6.8 19.826l-3.157-4.792 29.875 16.241v.002c.074-.199.153-.396.236-.592L7.401 14.108 5.006 9.544l6.855 4.361-7.505-5.601-1.45-2.766 13.304 8.761L1.901 3.624 0 0z"></path></g><!----></svg>